<?xml version="1.0" ?><!DOCTYPE svg  PUBLIC '-//W3C//DTD SVG 1.1//EN'  'http://www.w3.org/Graphics/SVG/1.1/DTD/svg11.dtd'><svg enable-background="new 0 0 512 512" height="512px" version="1.1" viewBox="0 0 512 512" width="512px" xml:space="preserve" xmlns="http://www.w3.org/2000/svg" xmlns:xlink="http://www.w3.org/1999/xlink"><g id="Colors"><rect fill="#FFFFFF" height="267" stroke="#231F20" stroke-miterlimit="10" width="267" x="-779" y="-512"/><rect fill="#FBD50A" height="267" stroke="#231F20" stroke-miterlimit="10" width="267" x="-779" y="-244"/><rect fill="#C61934" height="267" stroke="#231F20" stroke-miterlimit="10" width="267" x="-779" y="23"/><rect fill="#96212C" height="267" stroke="#231F20" stroke-miterlimit="10" width="267" x="-779" y="290"/><rect fill="#202C3C" height="267" stroke="#231F20" stroke-miterlimit="10" width="267" x="-779" y="557"/><rect fill="#ED1C24" height="267" stroke="#231F20" stroke-miterlimit="10" width="267" x="-779" y="825"/></g><g id="Icon"><ellipse cx="258.375" cy="255.649" fill="#FBD50A" rx="254.776" ry="252.774"/></g><g id="Layer_4"><path d="M370.826,325.939l5.664,5.664l8.497-8.497l36.1,21.852l-85.49,85.49l-21.852-36.1l9.164-9.164l-5.664-5.664   L370.826,325.939z M177.145,167.116l128.471,128.471c6.179-1.393,12.906,0.27,17.716,5.08c7.46,7.46,7.46,19.555,0,27.015   c-7.46,7.46-19.555,7.46-27.015,0c-4.628-4.628-6.373-11.04-5.258-17.023L162.33,181.931l51.852,178.212l91.938,5.665   l13.943,13.943l50.98-50.98l-14.815-14.815l-4.793-91.938L177.145,167.116z" fill="#202C3C"/><path d="M182.928,161.333l128.471,128.471c6.179-1.393,12.906,0.27,17.716,5.08c7.46,7.46,7.46,19.555,0,27.015   c-7.46,7.46-19.555,7.46-27.015,0c-4.628-4.628-6.373-11.04-5.258-17.023L168.113,176.148l51.852,178.212l91.938,5.665   l13.943,13.943l50.98-50.98l-14.815-14.815l-4.793-91.938L182.928,161.333z" fill="#DBDBDB"/><path d="M353.372,100.932   c-82.637-57.314-196.089-36.786-253.403,45.85s-36.786,196.089,45.85,253.403" fill="none" stroke="#C61934" stroke-miterlimit="10" stroke-width="20"/><rect fill="#202C3C" height="33.021" width="33.021" x="129.309" y="383.675"/><rect fill="#202C3C" height="33.021" width="33.021" x="343.805" y="87.333"/></g></svg>