<?xml version="1.0" ?><!DOCTYPE svg  PUBLIC '-//W3C//DTD SVG 1.1//EN'  'http://www.w3.org/Graphics/SVG/1.1/DTD/svg11.dtd'><svg height="512px" style="enable-background:new 0 0 512 512;" version="1.1" viewBox="0 0 512 512" width="512px" xml:space="preserve" xmlns="http://www.w3.org/2000/svg" xmlns:xlink="http://www.w3.org/1999/xlink"><g id="linkedin__x2C__social__x2C__media_x2C__icons_x2C_"><g><g><path d="M124.369,22.189H387.92     c56.246,0,102.193,45.938,102.193,102.18v263.255c0,56.258-45.947,102.192-102.193,102.192H124.369     c-56.243,0-102.18-45.935-102.18-102.192V124.369C22.189,68.127,68.126,22.189,124.369,22.189L124.369,22.189z" style="fill-rule:evenodd;clip-rule:evenodd;fill:#C8DBEB;"/></g><g><path d="M400.586,255.996c0,79.816-64.777,144.593-144.586,144.593     c-79.801,0-144.294-64.776-144.294-144.593c0-79.799,64.493-144.585,144.294-144.585     C335.809,111.411,400.586,176.197,400.586,255.996L400.586,255.996z" style="fill-rule:evenodd;clip-rule:evenodd;fill:#FEFEFE;"/></g><g><path d="M405.889,255.996c0,82.755-67.139,149.893-149.889,149.893     c-82.744,0-149.589-67.138-149.589-149.893c0-82.744,66.845-149.879,149.589-149.879     C338.75,106.117,405.889,173.252,405.889,255.996L405.889,255.996z" style="fill-rule:evenodd;clip-rule:evenodd;fill:#2096CF;"/></g><g><path d="M183.271,249.822v75.083h35.922v-80.983v-20.906h-35.922     V249.822z M335.809,254.231c-2.658-19.135-11.482-31.216-37.402-31.216c-15.311,0-25.615,5.601-30.039,13.549h-0.293v-13.549     h-28.562v19.439v82.45h29.745v-50.647c0-13.252,2.648-26.203,19.133-26.203c16.203,0,17.381,15.31,17.381,27.083v49.768h30.625     v-55.944l0,0C336.396,263.654,336.102,258.654,335.809,254.231L335.809,254.231z M201.226,171.788     c-9.719,0-17.955,7.938-17.955,17.954c0,9.716,8.236,17.965,17.955,17.965c10.013,0,17.967-8.249,17.967-17.965     C219.192,179.726,211.238,171.788,201.226,171.788L201.226,171.788z" style="fill-rule:evenodd;clip-rule:evenodd;fill:#FEFEFE;"/></g><g><path d="M124.369,16.006h8.54h51.83h10.308c3.239,0,5.886,2.651,5.886,6.184l0,0     c0,3.232-2.646,5.89-5.886,5.89h-10.308h-51.83h-8.54c-26.5,0-50.35,10.897-68.021,28.264     c-17.37,17.377-27.972,41.522-27.972,68.025v71.267c0.295,0,0.882,0,1.471,0h10.015c3.528,0,6.177,2.646,6.177,5.88l0,0     c0,3.543-2.648,6.191-6.177,6.191H29.848c-0.589,0-1.176,0-1.471-0.294v180.211c0,2.364,0,4.723,0,6.78c0.295,0,0.588,0,0.588,0     h167.847c-17.669-7.657-33.862-18.558-47.11-31.81c-24.157-24.145-40.053-55.944-43.584-91.572H68.419     c-3.234,0-6.18-2.648-6.18-6.194l0,0c0-3.235,2.945-5.877,6.18-5.877h37.11c0-1.181,0-2.061,0-2.955     c0-16.78,2.649-32.98,7.944-48.289H65.771c-3.237,0-6.189-2.648-6.189-5.895l0,0c0-3.238,2.952-6.177,6.189-6.177h50.947     c0.589,0,0.883,0,1.176,0.294c7.649-17.381,18.547-33.274,31.807-46.525c13.248-13.245,29.441-24.148,47.11-31.807h-67.138     c-3.237,0-6.188-2.645-6.188-6.187l0,0c0-3.235,2.95-5.888,6.188-5.888H256c41.816,0,79.219,16.784,106.6,43.881     c27.383,27.384,44.174,65.076,44.174,106.592c0,41.522-16.791,79.219-44.174,106.599c-27.381,27.101-64.783,43.884-106.6,43.884     c-1.473,0-3.237,0-5.002,0c-0.295,0-0.589,0-0.882,0H30.145c3.824,19.139,13.246,35.922,26.204,49.177     c17.671,17.371,41.521,28.268,68.021,28.268h13.847h19.429h61.843c3.237,0,6.188,2.645,6.188,5.894l0,0     c0,3.529-2.95,6.178-6.188,6.178h-61.843h-19.429h-13.847c-29.735,0-56.834-12.071-76.564-31.804     c-19.428-19.718-31.803-46.818-31.803-76.566V124.369c0-29.738,12.375-56.835,31.803-76.564     C67.535,28.08,94.634,16.006,124.369,16.006L124.369,16.006z M328.15,483.923h-9.426c-3.234,0-6.189,2.645-6.189,5.894l0,0     c0,3.529,2.955,6.178,6.189,6.178h9.426c3.529,0,6.178-2.648,6.178-6.178l0,0C334.328,486.567,331.68,483.923,328.15,483.923     L328.15,483.923z M281.328,483.923h-31.212c-3.247,0-6.19,2.645-6.19,5.894l0,0c0,3.529,2.943,6.178,6.19,6.178h31.212     c3.236,0,6.178-2.648,6.178-6.178l0,0C287.506,486.567,284.564,483.923,281.328,483.923L281.328,483.923z M357.893,483.923h-5.01     c-3.238,0-6.18,2.645-6.18,5.894l0,0c0,3.529,2.941,6.178,6.18,6.178h5.01h26.793h3.234c29.746,0,56.836-12.071,76.275-31.804     c19.729-19.718,31.803-46.818,31.803-76.566V124.369c0-29.738-12.074-56.835-31.803-76.564     c-18.545-18.544-43.877-30.625-71.852-31.799c-0.293,0-0.881,0-1.174,0h-3.25h-11.186H264.836c-3.24,0-6.18,2.651-6.18,6.184l0,0     c0,3.232,2.939,5.89,6.18,5.89h111.898h11.186c26.217,0,50.365,10.897,67.729,28.264c17.379,17.377,28.275,41.522,28.275,68.025     v263.255c0,26.513-10.896,50.654-28.275,68.031c-17.363,17.371-41.512,28.268-67.729,28.268h-3.234H357.893z M223.899,16.006     h14.731c3.532,0,6.177,2.651,6.177,6.184l0,0c0,3.232-2.645,5.89-6.177,5.89h-14.731c-3.234,0-6.179-2.658-6.179-5.89l0,0     C217.721,18.657,220.665,16.006,223.899,16.006L223.899,16.006z M47.512,258.951h-7.649c-3.541,0-6.189,2.642-6.189,5.877l0,0     c0,3.546,2.648,6.194,6.189,6.194h7.649c3.539,0,6.188-2.648,6.188-6.194l0,0C53.699,261.593,51.051,258.951,47.512,258.951     L47.512,258.951z M99.342,105.523H81.963c-3.53,0-6.179,2.652-6.179,5.888l0,0c0,3.542,2.648,6.187,6.179,6.187h17.379     c3.235,0,6.188-2.645,6.188-6.187l0,0C105.529,108.176,102.577,105.523,99.342,105.523L99.342,105.523z M354.061,353.763     c25.027-25.025,40.639-59.483,40.639-97.767c0-38.276-15.611-72.728-40.639-97.757c-25.029-25.335-59.773-40.642-98.061-40.642     c-38.279,0-72.729,15.307-97.769,40.642c-25.027,25.029-40.63,59.48-40.63,97.757c0,38.283,15.603,72.741,40.63,97.767     c25.039,25.333,59.489,40.642,97.769,40.642C294.287,394.404,329.031,379.096,354.061,353.763L354.061,353.763z" style="fill:#2096CF;"/></g></g></g><g id="Layer_1"/></svg>